<svg xmlns="http://www.w3.org/2000/svg" width="1146" height="512" fill="none" viewBox="0 0 1146 512">
  <g opacity=".8">
    <path fill="#379EFE" d="M1146 512l.5-143.5C474.001 248.5-267 501 97 512h1049z"/>
    <g clip-path="url(#clip0_1_84)">
      <path fill="#F2F2F2" d="M735.691 12.934a6.467 6.467 0 100-12.934 6.467 6.467 0 000 12.934zM735.691 38.707a6.467 6.467 0 100-12.933 6.467 6.467 0 000 12.933zM762.691 12.934a6.467 6.467 0 100-12.934 6.467 6.467 0 000 12.934zM762.691 38.707a6.467 6.467 0 100-12.933 6.467 6.467 0 000 12.933zM789.691 12.934a6.467 6.467 0 100-12.934 6.467 6.467 0 000 12.934zM789.691 38.707a6.467 6.467 0 100-12.933 6.467 6.467 0 000 12.933zM789.691 64.48a6.467 6.467 0 100-12.933 6.467 6.467 0 000 12.933zM789.691 90.254a6.467 6.467 0 100-12.934 6.467 6.467 0 000 12.934zM816.691 12.934a6.467 6.467 0 100-12.934 6.467 6.467 0 000 12.934zM816.691 38.707a6.467 6.467 0 100-12.933 6.467 6.467 0 000 12.933zM816.691 64.48a6.467 6.467 0 100-12.933 6.467 6.467 0 000 12.933zM816.691 90.254a6.467 6.467 0 100-12.934 6.467 6.467 0 000 12.934zM843.691 12.934a6.467 6.467 0 100-12.934 6.467 6.467 0 000 12.934zM843.691 38.707a6.467 6.467 0 100-12.933 6.467 6.467 0 000 12.933zM870.691 12.934a6.467 6.467 0 100-12.934 6.467 6.467 0 000 12.934zM870.691 38.707a6.467 6.467 0 100-12.933 6.467 6.467 0 000 12.933z"/>
      <path fill="#3F3D56" d="M1068.11 341.258h-48.01c0 1.38-49.476 2.5-49.476 2.5a12.883 12.883 0 00-2.109 2 12.41 12.41 0 00-2.901 8v2a12.505 12.505 0 0012.5 12.5h89.996a12.503 12.503 0 0012.5-12.5v-2a12.505 12.505 0 00-12.5-12.5z"/>
      <path fill="#3F3D56" d="M1030.11 367.762h-13v84h13v-84z"/>
      <path fill="#3F3D56" d="M1067.11 451.305c0 1.405-19.7.543-44 .543-24.301 0-44.001.862-44.001-.543s19.7-12.543 44.001-12.543c24.3 0 44 11.138 44 12.543z"/>
      <path fill="#FFB8B8" d="M958.1 440.257l-12.26-.001-5.833-47.288 18.095.001-.002 47.288z"/>
      <path fill="#2F2E41" d="M937.083 436.753h23.644v14.887h-38.531a14.888 14.888 0 0114.887-14.887z"/>
      <path fill="#FFB8B8" d="M938.962 433.414l-11.697-3.671 8.592-46.865 17.264 5.418-14.159 45.118z"/>
      <path fill="#2F2E41" d="M919.958 423.779l22.559 7.08-4.457 14.204-36.763-11.537a14.887 14.887 0 0118.661-9.747zM1035.28 333.061a37.46 37.46 0 00-1.52-7.02l-2.29-2.88-5.96-7.48-.26.01c-.44.02-2.27.12-5.1.34h-.03c-1.75.14-3.89.32-6.32.55-.64.07-1.31.13-2 .2v10.44h12.5a2.503 2.503 0 012.48 2.18c.01.11.02.21.02.32a2.494 2.494 0 01-2.5 2.5h-72.6a28.423 28.423 0 00-2.66 2 14.89 14.89 0 00-5.25 7.86c-4.24 18.64-11.969 53.4-14.25 63.61a4.54 4.54 0 001.35 4.28c.426.397.926.706 1.471.91l9.02 3.38c.37.137.756.228 1.149.27.05 0 .09.01.141.01a4.523 4.523 0 002.832-.79 4.527 4.527 0 001.657-2.1l7.12-18.68 10.971-28.8 4.34-11.39c5.029 1.18 47.229 10.52 61.359-4.53a16.198 16.198 0 003.24-5.11 20.834 20.834 0 001.09-10.08z"/>
      <path fill="#2F2E41" d="M1047.52 335.781c-.22-.89-.47-1.81-.76-2.74l-8.25-10.36-.26.01c-.52.03-2.99.16-6.78.47-4.3.36-10.31.94-17.06 1.85-.2.02-.41.05-.61.08-.66.09-1.33.18-2 .28v1.85h12.5a2.503 2.503 0 012.48 2.18c.01.11.02.21.02.32a2.494 2.494 0 01-2.5 2.5h-44.18a92.64 92.64 0 00-5.569 2c-9.34 3.7-16.33 8.55-17.761 14.86l-1.57 6.93c-2.08 9.22-4.609 20.51-6.899 30.77v.01c-.471 2.12-.94 4.18-1.391 6.18-1.91 8.6-3.529 15.89-4.39 19.72l-.06.32v.02a4.67 4.67 0 00.281 2.29l.009.01v.01a4.43 4.43 0 001.301 1.79 4.58 4.58 0 001.29.75l9.02 3.38a4.426 4.426 0 003.719-.26 4.498 4.498 0 002.06-2.35l19.42-50.96 3.011-7.91c5.029 1.18 47.229 10.51 61.359-4.53a16.919 16.919 0 004.48-11.07c.1-2.829-.21-5.658-.91-8.4z"/>
      <path fill="#379EFE" d="M1046.41 247.561a8.89 8.89 0 00-.51-.56 24.426 24.426 0 00-9.6-6.214 24.467 24.467 0 00-11.37-1.176 79.43 79.43 0 00-9.91 1.95 24.982 24.982 0 00-11.18 6.27 24.388 24.388 0 00-5.616 8.322 24.41 24.41 0 00-1.794 9.878c.04 1.37.05 2.77.031 4.19 0 .66-.011 1.33-.02 2h9.859a5.497 5.497 0 014.31 2.092 5.485 5.485 0 011.19 3.408v46.52c.67.19 1.34.38 2 .58.21.07.41.13.61.19.23.07.46.14.68.21 2.03.63 4.01 1.297 5.95 2h3.26a2.507 2.507 0 012.48 2.18 181.195 181.195 0 018.5 3.66c2.71 1.24 5.12 2.42 7.14 3.45.64.324 1.34.495 2.05.5a4.385 4.385 0 002.6-.86 4.519 4.519 0 001.63-2.19c.24-.694.3-1.435.19-2.16a128.604 128.604 0 01-.9-23.7c.28-6.65.88-13.47 1.66-20.06a386.6 386.6 0 012.84-19.67c.64-3.703.43-7.503-.62-11.111a24.633 24.633 0 00-5.46-9.699z"/>
      <path fill="#379EFE" d="M1005.42 248.381a11.502 11.502 0 00-15.119 5.98l-6.871 15.86-.859 2h23.729c.43-.001.85.049 1.27.15l.8-1.85 3.04-7.02c1.21-2.8 1.26-5.964.13-8.799a11.49 11.49 0 00-6.12-6.321z"/>
      <path fill="#FFB8B8" d="M1026.76 231.803c13.56 0 24.56-10.997 24.56-24.561 0-13.565-11-24.561-24.56-24.561-13.57 0-24.56 10.996-24.56 24.561 0 13.564 10.99 24.561 24.56 24.561zM1051.03 277.601l-14.02.38-1.02 9.85-.23 2.28-21.96 9.86-2 .9v17.53l2-.57 6.32-1.8h.03l27.84-7.93.32-.09a10.898 10.898 0 005.65-3.872 10.904 10.904 0 002.21-6.478l.07-11.63.06-8.57-5.27.14z"/>
      <path fill="#379EFE" d="M1055.59 258.121a11.493 11.493 0 00-1.14-4.339 11.505 11.505 0 00-18.96-2.575 11.488 11.488 0 00-2.86 8.324l1.53 24.96c.04.657.23 1.297.54 1.874.32.577.76 1.078 1.29 1.466.85.63 1.89.939 2.94.87l10.72-.66 3.25-.2a4.458 4.458 0 001.71-.437c.53-.26 1-.625 1.39-1.073.09-.095.17-.195.24-.3.64-.851.95-1.9.88-2.96l-1.53-24.95z"/>
      <path fill="#3F3D56" d="M1015.09 325.221h-1.29v-.13c-.66.09-1.33.18-2 .28v1.85h9.24c-1.94-.7-3.92-1.367-5.95-2zm0 0h-1.29v-.13c-.66.09-1.33.18-2 .28v1.85h9.24c-1.94-.7-3.92-1.367-5.95-2zm9.21 0h-10.5v-47.5a7.48 7.48 0 00-1.51-4.506 7.539 7.539 0 00-3.92-2.694 7.078 7.078 0 00-2.07-.3h-88.999a7.511 7.511 0 00-7.5 7.5v49a7.503 7.503 0 007.5 7.5H1024.3a4.494 4.494 0 003-1.151 4.474 4.474 0 001.47-2.859c.02-.162.03-.326.03-.49a4.509 4.509 0 00-4.5-4.5zm2.5 4.5a2.494 2.494 0 01-2.5 2.5H917.301a5.503 5.503 0 01-5.5-5.5v-49a5.5 5.5 0 015.5-5.5h88.999a5.497 5.497 0 014.31 2.092 5.485 5.485 0 011.19 3.408v49.5h12.5a2.503 2.503 0 012.48 2.18c.01.11.02.21.02.32zm-11.71-4.5h-1.29v-.13c-.66.09-1.33.18-2 .28v1.85h9.24c-1.94-.7-3.92-1.367-5.95-2z"/>
      <path fill="#379EFE" d="M961.797 308.223a6 6 0 100-12 6 6 0 000 12z"/>
      <path fill="#2F2E41" d="M1021.51 197.499c-5.7 5.096-13.35 10.566-20.34 6.832-4.584-2.451-6.626-7.828-5.555-12.917 1.927-9.152 9.835-14.097 17.495-18.095 9.96-5.197 20.95-9.728 32.1-8.377 11.16 1.351 22.05 10.565 21.53 21.786-.43 9.024-7.8 17.442-5.46 26.169 2.34 8.783 13 12.184 22.08 12.631 9.09.447 19.08-.327 26.29 5.22 9.18 7.076 9.04 21.872 2.5 31.449-6.55 9.577-17.59 14.966-28.44 19.062-14.38 5.428-30.18 9.35-45.02 5.359-14.84-3.99-27.83-18.227-25.65-33.439.92-6.425 4.3-12.193 7.56-17.804 3.26-5.612 6.54-11.463 7.23-17.917.57-5.379-1.14-11.317-5.11-14.781a4.45 4.45 0 01-1.45-2.33c-.23-.91-.16-1.868.2-2.737l.04-.111z"/>
      <path fill="#3F3D56" d="M330.191 453.112h773.289c.32 0 .62-.125.85-.349.22-.223.35-.526.35-.842 0-.316-.13-.618-.35-.842a1.214 1.214 0 00-.85-.348H330.191a1.192 1.192 0 00-1.104.734 1.192 1.192 0 001.104 1.647zM369.43 353.758v2a12.514 12.514 0 0012.5 12.5h90a12.505 12.505 0 0012.5-12.5v-2a12.415 12.415 0 00-2.9-8 12.93 12.93 0 00-2.11-2s-49.48-1.12-49.48-2.5h-48.01a12.516 12.516 0 00-12.5 12.5z"/>
      <path fill="#3F3D56" d="M419.935 451.762h13v-84h-13v84z"/>
      <path fill="#3F3D56" d="M382.935 451.305c0 1.405 19.699.543 44 .543 24.3 0 44 .862 44-.543s-19.7-12.543-44-12.543c-24.301 0-44 11.138-44 12.543z"/>
      <path fill="#A0616A" d="M492.53 441.018h12.26l5.832-47.288-18.094.001.002 47.287z"/>
      <path fill="#2F2E41" d="M528.434 452.401l-38.53.002-.001-14.887 23.644-.001a14.888 14.888 0 0114.887 14.886z"/>
      <path fill="#A0616A" d="M511.668 434.176l11.697-3.671-8.592-46.865-17.264 5.418 14.159 45.118z"/>
      <path fill="#2F2E41" d="M549.333 434.287l-36.763 11.537-4.458-14.204 22.56-7.079a14.89 14.89 0 0118.661 9.746zM503.466 412.411l-22.427-58.871c-5.032 1.182-47.227 10.519-61.359-4.528-4.843-5.158-5.788-12.629-2.808-22.208l8.248-10.365.256.014c3.119.164 76.435 4.274 81.461 26.389 4.238 18.644 11.977 53.405 14.248 63.615a4.521 4.521 0 01-2.814 5.184l-9.02 3.381a4.442 4.442 0 01-1.572.287 4.52 4.52 0 01-4.213-2.898z"/>
      <path fill="#2F2E41" d="M490.466 419.411l-22.427-58.871c-5.032 1.182-47.227 10.518-61.359-4.528-4.843-5.158-5.788-12.629-2.808-22.208l8.248-10.365.256.014c3.119.164 76.435 4.274 81.461 26.389 4.238 18.644 11.977 53.405 14.248 63.615a4.521 4.521 0 01-2.814 5.184l-9.02 3.381a4.442 4.442 0 01-1.572.287 4.52 4.52 0 01-4.213-2.898z"/>
      <path fill="#A0616A" d="M470.292 305.193a19.191 19.191 0 01-16.484-9.371l-7.123-12.066 16.93-9.253 7.188 9.856 48.774-5.139c.237-.429.504-.842.799-1.234a11.013 11.013 0 017.873-4.314 10.886 10.886 0 018.493 3.012 11.029 11.029 0 011.86 13.564 10.998 10.998 0 01-7.351 5.184 11.003 11.003 0 01-8.763-2.033 10.558 10.558 0 01-.823-.7l-46.714 11.91a18.824 18.824 0 01-4.659.584z"/>
      <path fill="#CCC" d="M403.555 336.912a4.503 4.503 0 01-1.819-4.349c2.783-18.342-.418-44.619-3.594-63.432a24.799 24.799 0 0127.559-28.762 79.965 79.965 0 019.913 1.954 24.596 24.596 0 0118.582 24.468c-.475 18.154 3.211 40.806 4.818 49.701a4.52 4.52 0 01-.833 3.511 4.4 4.4 0 01-3.096 1.75c-17.808 1.817-37.012 10.502-46.874 15.516a4.488 4.488 0 01-2.05.501 4.426 4.426 0 01-2.606-.858z"/>
      <path fill="#CCC" d="M451.626 289.601a4.48 4.48 0 01-2.474-2.398l-9.931-22.942a11.494 11.494 0 012.289-12.577 11.5 11.5 0 0116.268-.254 11.508 11.508 0 012.55 3.695l9.932 22.942a4.509 4.509 0 01-2.342 5.917l-12.848 5.562a4.474 4.474 0 01-3.444.055z"/>
      <path fill="#A0616A" d="M423.873 232.564c13.565 0 24.561-10.996 24.561-24.561 0-13.564-10.996-24.561-24.561-24.561-13.564 0-24.561 10.997-24.561 24.561 0 13.565 10.997 24.561 24.561 24.561z"/>
      <path fill="#2F2E41" d="M409.031 229.824a3.976 3.976 0 01-5.691.327 44.432 44.432 0 01-12.672-16.549c-3.193-7.611-3.661-16.899-.027-24.033 3.072-6.031 8.587-9.87 14.092-13.007a22.966 22.966 0 016.848-2.894 8.998 8.998 0 017.154 1.406 7.547 7.547 0 012.878 7.228 22.348 22.348 0 019.802-7.357 11.363 11.363 0 017.554-.506c3.535 1.18 6.152 4.75 7.609 8.586a19.146 19.146 0 011.255 9.264 11.119 11.119 0 01-4.269 7.671c-2.884 1.99-6.599 1.788-9.953.907-3.354-.88-6.609-2.374-10.021-2.79-3.413-.416-7.195.486-9.228 3.53-1.432 2.143-1.769 4.967-2.061 7.658l-1.52 13.999a18.524 18.524 0 01-1.277 5.839 3.23 3.23 0 01-.473.721z"/>
      <path fill="#CCC" d="M497.868 381.094h-39.872a4.242 4.242 0 01-3.356-1.626 4.324 4.324 0 01-.807-3.705 102.32 102.32 0 000-47.525 4.316 4.316 0 01.807-3.704 4.243 4.243 0 013.356-1.627h39.872a4.305 4.305 0 014.237 3.606 167.485 167.485 0 010 50.976 4.3 4.3 0 01-4.237 3.605z"/>
      <path fill="#fff" d="M467.266 344.584v-1.172a3 3 0 013-3h20.923a3.003 3.003 0 013 3v1.172a3.004 3.004 0 01-3 3h-20.923a3.003 3.003 0 01-3-3zM467.266 356.929v-1.173a3.002 3.002 0 013-3h20.923a3.006 3.006 0 013 3v1.173a3.004 3.004 0 01-3 3h-20.923a3.003 3.003 0 01-3-3z"/>
      <path fill="#379EFE" d="M480.128 308.841a4.402 4.402 0 01-.846-1.788 4.404 4.404 0 01.025-1.978 103.996 103.996 0 000-48.306 4.404 4.404 0 01-.025-1.978 4.408 4.408 0 01.846-1.788 4.316 4.316 0 013.41-1.652h40.528a4.371 4.371 0 014.306 3.665 170.217 170.217 0 010 51.813 4.372 4.372 0 01-4.306 3.665h-40.528a4.312 4.312 0 01-3.41-1.653z"/>
      <path fill="#fff" d="M516.245 273.173h-21.349a3.006 3.006 0 01-3-3v-1.274a3.002 3.002 0 013-3h21.349a3 3 0 013 3v1.274a3 3 0 01-3 3zM516.245 285.72h-21.349a3.003 3.003 0 01-3-3v-1.274a3.004 3.004 0 013-3h21.349a3 3 0 013 3v1.274a3 3 0 01-3 3z"/>
      <path fill="#A0616A" d="M461.533 330.839a11.023 11.023 0 01-6.534-6.157 10.618 10.618 0 01-.359-1.019l-52.322-14.894a10.881 10.881 0 01-7.861-10.342l-.128-20.202 19.286.516 1.257 12.134 44.741 20.087c.421-.251.859-.473 1.311-.664a11.004 11.004 0 0110.218.896 11.02 11.02 0 015.045 8.931 11.01 11.01 0 01-14.654 10.714z"/>
      <path fill="#CCC" d="M394.629 287.094a4.467 4.467 0 01-1.12-3.258l1.534-24.953a11.526 11.526 0 011.139-4.345 11.508 11.508 0 0111.047-6.446 11.497 11.497 0 0110.77 12.204l-1.533 24.952a4.509 4.509 0 01-4.768 4.216l-13.973-.86a4.466 4.466 0 01-3.096-1.51z"/>
      <path fill="#3F3D56" d="M619.522 153.064h-82a9.012 9.012 0 01-9-9v-89a9.012 9.012 0 019-9h82a9.01 9.01 0 019 9v89a9.012 9.012 0 01-9 9zm-82-105a7.006 7.006 0 00-7 7v89a7.003 7.003 0 002.053 4.947 7.003 7.003 0 004.947 2.053h82a7.007 7.007 0 007-7v-89a7.008 7.008 0 00-7-7h-82zM769.522 153.064h-82a9.012 9.012 0 01-9-9v-89a9.012 9.012 0 019-9h82a9.01 9.01 0 019 9v89a9.012 9.012 0 01-9 9zm-82-105a7.006 7.006 0 00-7 7v89a7.003 7.003 0 002.053 4.947 7.003 7.003 0 004.947 2.053h82a7.007 7.007 0 007-7v-89a7.008 7.008 0 00-7-7h-82z"/>
      <path fill="#379EFE" d="M554.037 83.064h-8a4.503 4.503 0 01-4.5-4.5v-8a4.503 4.503 0 014.5-4.5h8a4.507 4.507 0 014.5 4.5v8a4.506 4.506 0 01-4.5 4.5z"/>
      <path fill="#CCC" d="M554.037 108.064h-8a4.5 4.5 0 01-3.18-1.32 4.5 4.5 0 01-1.32-3.18v-8a4.503 4.503 0 014.5-4.5h8a4.507 4.507 0 014.5 4.5v8a4.504 4.504 0 01-4.5 4.5z"/>
      <path fill="#379EFE" d="M612.507 78.2h-37.349a3.005 3.005 0 01-3-3v-1.273a3.005 3.005 0 013-3h37.349a3.003 3.003 0 013 3V75.2a3.002 3.002 0 01-3 3z"/>
      <path fill="#CCC" d="M704.727 81.495h-8a4.507 4.507 0 01-4.5-4.5v-8a4.506 4.506 0 014.5-4.5h8a4.502 4.502 0 014.5 4.5v8a4.507 4.507 0 01-4.5 4.5zM763.197 76.632h-37.35a3.002 3.002 0 01-3-3v-1.274a3.006 3.006 0 013-3h37.35a3.003 3.003 0 013 3v1.274a3.002 3.002 0 01-3 3z"/>
      <path fill="#379EFE" d="M763.197 100.632h-69.35a3.003 3.003 0 01-3-3v-1.274a3.006 3.006 0 013-3h69.35a3.003 3.003 0 013 3v1.274a3.002 3.002 0 01-3 3z"/>
      <path fill="#CCC" d="M763.197 117.632h-69.35a3.004 3.004 0 01-3-3v-1.274a3.005 3.005 0 013-3h69.35a3.005 3.005 0 013 3v1.274a3.003 3.003 0 01-3 3zM763.197 134.632h-69.35a3.004 3.004 0 01-3-3v-1.274a3.005 3.005 0 013-3h69.35a3.005 3.005 0 013 3v1.274a3.003 3.003 0 01-3 3z"/>
      <path fill="#3F3D56" d="M919.522 153.064h-82a9.012 9.012 0 01-9-9v-89a9.012 9.012 0 019-9h82a9.01 9.01 0 019 9v89a9.012 9.012 0 01-9 9zm-82-105a7.006 7.006 0 00-7 7v89a7.003 7.003 0 002.053 4.947 7.003 7.003 0 004.947 2.053h82a7.007 7.007 0 007-7v-89a7.008 7.008 0 00-7-7h-82z"/>
      <path fill="#CCC" d="M913.197 76.632h-37.35a3.002 3.002 0 01-3-3v-1.274a3.006 3.006 0 013-3h37.35a3.003 3.003 0 013 3v1.274a3.002 3.002 0 01-3 3zM913.197 100.632h-69.35a3.003 3.003 0 01-3-3v-1.274a3.006 3.006 0 013-3h69.35a3.003 3.003 0 013 3v1.274a3.002 3.002 0 01-3 3zM913.197 117.632h-69.35a3.004 3.004 0 01-3-3v-1.274a3.005 3.005 0 013-3h69.35a3.005 3.005 0 013 3v1.274a3.003 3.003 0 01-3 3zM913.197 134.632h-69.35a3.004 3.004 0 01-3-3v-1.274a3.005 3.005 0 013-3h69.35a3.005 3.005 0 013 3v1.274a3.003 3.003 0 01-3 3zM612.507 103.201h-37.349a3.003 3.003 0 01-3-3v-1.274a3.005 3.005 0 013-3h37.349a3.003 3.003 0 013 3v1.274a3 3 0 01-3 3zM554.037 133.064h-8a4.5 4.5 0 01-3.18-1.32 4.5 4.5 0 01-1.32-3.18v-8a4.504 4.504 0 014.5-4.5h8a4.508 4.508 0 013.181 1.319 4.508 4.508 0 011.319 3.181v8a4.504 4.504 0 01-4.5 4.5zM612.507 128.201h-37.349a3.003 3.003 0 01-3-3v-1.274a3.004 3.004 0 013-3h37.349a3 3 0 013 3v1.274a3 3 0 01-3 3z"/>
      <path fill="#379EFE" d="M859.519 72.064c0-.023.003-.045.003-.069a9.006 9.006 0 00-2.636-6.364 9.004 9.004 0 00-6.364-2.636v9.069h8.997z"/>
      <path fill="#CCC" d="M849.522 73.064v-9.069a9 9 0 108.997 9.069h-8.997z"/>
    </g>
  </g>
  <defs>
    <clipPath id="clip0_1_84">
      <path fill="#fff" d="M0 0h787.827v453.112H0z" transform="translate(329)"/>
    </clipPath>
  </defs>
</svg>
